<svg xmlns="http://www.w3.org/2000/svg" viewBox="0 0 320 64" role="img" aria-label="AquaControll">
  <!-- POZN.: swoosh uvnitř kapky je PŘIBLIŽNÁ náhrada loga VHOS; nahradit oficiálním znakem. -->
  <defs>
    <linearGradient id="acDrop2" x1="0" y1="0" x2="0" y2="1">
      <stop offset="0" stop-color="#36c5f0"/>
      <stop offset="0.55" stop-color="#1e8fe0"/>
      <stop offset="1" stop-color="#0b63b8"/>
    </linearGradient>
  </defs>
  <!-- ikona kapky se swooshem -->
  <g>
    <path d="M32 5 C32 5 13 27 13 41 a19 19 0 1 0 38 0 C51 27 32 5 32 5 Z"
          fill="url(#acDrop2)"/>
    <path d="M24 24 C20 30 19 36 20 41" fill="none" stroke="#ffffff" stroke-opacity="0.35"
          stroke-width="3" stroke-linecap="round"/>
    <ellipse cx="32" cy="41" rx="14.5" ry="10.5" fill="#ffffff"/>
    <g transform="translate(32,41)">
      <path d="M-12 -1 C-7 -8 7 -8 12 -2 C5 -4.5 -5 -4.5 -12 -1 Z" fill="#0b63b8"/>
      <path d="M-12 1 C-5 3.5 5 3.5 12 0 C7 7 -7 7 -12 1 Z" fill="#e23b3b"/>
    </g>
  </g>
  <!-- název -->
  <text x="72" y="41" font-family="Segoe UI, Roboto, Arial, sans-serif"
        font-size="30" font-weight="400" fill="#1e8fe0">Aqua<tspan
        font-weight="700" fill="#0b3a66">Controll</tspan></text>
</svg>
